<?xml version="1.0" standalone="no"?>
<!DOCTYPE svg PUBLIC "-//W3C//DTD SVG 20010904//EN"
 "http://www.w3.org/TR/2001/REC-SVG-20010904/DTD/svg10.dtd">
<svg version="1.0" xmlns="http://www.w3.org/2000/svg"
 width="1024.000000pt" height="1024.000000pt" viewBox="0 0 1024.000000 1024.000000"
 preserveAspectRatio="xMidYMid meet">

<g transform="translate(0.000000,1024.000000) scale(0.100000,-0.100000)"
fill="#000000" stroke="none">
<path d="M4915 8020 c-918 -67 -1723 -537 -2233 -1305 -244 -366 -396 -777
-458 -1240 -24 -178 -24 -532 0 -710 75 -559 283 -1046 631 -1478 204 -253
525 -529 788 -677 32 -18 56 -34 55 -36 -6 -5 -189 53 -338 108 -1029 376
-1908 1068 -2517 1983 -83 123 -243 392 -243 407 0 4 50 8 110 8 l110 0 0 80
0 80 -305 0 -305 0 0 -80 0 -80 103 0 102 0 34 -67 c92 -177 276 -466 426
-668 371 -501 881 -974 1412 -1311 1218 -772 2697 -1011 4102 -664 742 184
1435 527 2030 1004 311 250 639 585 888 907 157 204 371 535 474 732 l34 67
98 0 97 0 0 80 0 80 -305 0 -305 0 0 -80 0 -80 116 0 c135 0 131 15 43 -138
-611 -1064 -1611 -1890 -2770 -2290 -141 -49 -296 -95 -287 -87 2 3 47 30 99
61 621 374 1095 983 1293 1664 169 579 159 1180 -29 1745 -92 275 -190 475
-353 715 -110 162 -180 248 -322 394 -537 553 -1233 857 -2010 880 -85 2 -205
1 -265 -4z m551 -175 c483 -63 978 -275 1364 -582 122 -98 325 -301 423 -423
266 -333 465 -758 546 -1167 43 -211 54 -331 54 -558 0 -364 -59 -675 -190
-1005 -143 -361 -336 -653 -613 -931 -212 -213 -416 -362 -685 -500 -301 -155
-602 -248 -940 -290 -130 -16 -502 -16 -630 0 -815 102 -1515 530 -1969 1204
-740 1098 -584 2571 371 3498 461 447 1050 715 1694 769 139 12 428 4 575 -15z"/>
</g>
</svg>
